<?xml version="1.0" encoding="UTF-8"?>
<svg xmlns="http://www.w3.org/2000/svg" xmlns:xlink="http://www.w3.org/1999/xlink" width="200pt" height="200pt" viewBox="0 0 200 200" version="1.1">
<g id="surface10360">
<rect x="0" y="0" width="200" height="200" style="fill:rgb(100%,100%,100%);fill-opacity:1;stroke:none;"/>
<path style="fill:none;stroke-width:1.5;stroke-linecap:round;stroke-linejoin:round;stroke:rgb(0%,0%,100%);stroke-opacity:1;stroke-miterlimit:10;" d="M 200 100 L 199.105469 110.128906 L 196.457031 119.921875 L 192.140625 129.054688 L 186.316406 137.214844 L 179.191406 144.148438 L 171.011719 149.617188 L 162.070312 153.460938 L 152.683594 155.5625 L 143.179688 155.863281 L 133.898438 154.382812 L 125.167969 151.191406 L 117.292969 146.425781 L 110.550781 140.28125 L 105.175781 132.992188 L 101.359375 124.847656 L 99.234375 116.152344 L 98.867188 107.242188 L 100.265625 98.453125 L 103.378906 90.125 L 108.09375 82.570312 L 114.230469 76.082031 L 121.566406 70.910156 L 129.835938 67.265625 L 138.742188 65.296875 L 147.957031 65.09375 L 157.148438 66.683594 L 165.980469 70.039062 L 174.132812 75.054688 L 181.308594 81.578125 L 187.242188 89.394531 L 191.71875 98.246094 L 194.566406 107.84375 L 195.675781 117.867188 L 195.003906 127.972656 L 192.558594 137.832031 L 188.421875 147.105469 L 182.726562 155.488281 L 175.671875 162.703125 L 167.496094 168.511719 L 158.476562 172.726562 L 148.925781 175.21875 L 139.171875 175.921875 L 129.550781 174.828125 L 120.394531 171.992188 L 112.015625 167.542969 L 104.699219 161.648438 L 98.699219 154.542969 L 94.210938 146.496094 L 91.378906 137.8125 L 90.300781 128.820312 L 90.992188 119.855469 L 93.421875 111.257812 L 97.488281 103.351562 L 103.027344 96.433594 L 109.839844 90.769531 L 117.65625 86.574219 L 126.195312 84.019531 L 135.128906 83.207031 L 144.132812 84.191406 L 152.867188 86.945312 L 161.007812 91.394531 L 168.25 97.390625 L 174.320312 104.738281 L 178.984375 113.199219 L 182.066406 122.476562 L 183.433594 132.265625 L 183.023438 142.226562 L 180.835938 152.027344 L 176.933594 161.324219 L 171.429688 169.8125 L 164.511719 177.195312 L 156.40625 183.230469 L 147.382812 187.714844 L 137.742188 190.503906 L 127.816406 191.511719 L 117.933594 190.714844 L 108.429688 188.152344 L 99.625 183.933594 L 91.816406 178.21875 L 85.257812 171.222656 L 80.167969 163.207031 L 76.703125 154.46875 L 74.976562 145.332031 L 75.023438 136.128906 L 76.824219 127.203125 L 80.296875 118.878906 L 85.296875 111.464844 L 91.625 105.238281 L 99.039062 100.421875 L 107.257812 97.207031 L 115.960938 95.710938 L 124.828125 96 L 133.515625 98.074219 L 141.695312 101.863281 L 149.058594 107.242188 L 155.324219 114.03125 L 160.242188 122 L 163.621094 130.863281 L 165.320312 140.320312 L 165.257812 150.039062 L 163.410156 159.683594 L 159.828125 168.917969 L 154.613281 177.417969 L 147.933594 184.886719 L 140 191.066406 L 131.078125 195.742188 L 121.460938 198.753906 L 111.46875 200 L 101.4375 199.441406 L 91.699219 197.097656 L 82.578125 193.0625 L 74.378906 187.480469 L 67.371094 180.554688 L 61.78125 172.535156 L 57.785156 163.707031 L 55.503906 154.394531 L 54.996094 144.925781 L 56.257812 135.636719 L 59.21875 126.871094 L 63.757812 118.929688 L 69.6875 112.105469 L 76.773438 106.636719 L 84.746094 102.726562 L 93.292969 100.503906 L 102.09375 100.054688 L 110.808594 101.394531 L 119.109375 104.476562 L 126.671875 109.1875 L 133.214844 115.363281 L 138.472656 122.777344 L 142.242188 131.167969 L 144.367188 140.238281 L 144.75 149.65625 L 143.351562 159.089844 L 140.203125 168.203125 L 135.390625 176.664062 L 129.0625 184.171875 L 121.429688 190.453125 L 112.734375 195.285156 L 103.265625 198.488281 L 93.339844 199.945312 L 83.285156 199.601562 L 73.4375 197.464844 L 64.128906 193.605469 L 55.667969 188.152344 L 48.332031 181.296875 L 42.359375 173.277344 L 37.945312 164.375 L 35.222656 154.894531 L 34.265625 145.167969 L 35.089844 135.539062 L 37.640625 126.335938 L 41.8125 117.886719 L 47.429688 110.476562 L 54.277344 104.363281 L 62.085938 99.757812 L 70.5625 96.816406 L 79.378906 95.632812 L 88.207031 96.238281 L 96.707031 98.605469 L 104.5625 102.640625 L 111.46875 108.1875 L 117.160156 115.039062 L 121.417969 122.945312 L 124.070312 131.609375 L 125 140.714844 L 124.15625 149.929688 L 121.550781 158.90625 L 117.257812 167.324219 L 111.410156 174.863281 L 104.195312 181.25 L 95.855469 186.242188 L 86.660156 189.648438 L 76.929688 191.335938 L 66.980469 191.234375 L 57.15625 189.328125 L 47.785156 185.679688 L 39.183594 180.398438 L 31.640625 173.660156 L 25.40625 165.691406 L 20.683594 156.757812 L 17.625 147.167969 L 16.324219 137.246094 L 16.808594 127.328125 L 19.042969 117.753906 L 22.933594 108.847656 L 28.328125 100.910156 L 35.015625 94.207031 L 42.742188 88.964844 L 51.21875 85.351562 L 60.132812 83.476562 L 69.144531 83.390625 L 77.921875 85.082031 L 86.136719 88.476562 L 93.484375 93.429688 L 99.691406 99.75 L 104.515625 107.199219 L 107.78125 115.492188 L 109.351562 124.3125 L 109.15625 133.332031 L 107.195312 142.210938 L 103.523438 150.617188 L 98.253906 158.230469 L 91.566406 164.761719 L 83.6875 169.960938 L 74.882812 173.621094 L 65.453125 175.597656 L 55.722656 175.796875 L 46.03125 174.195312 L 36.703125 170.828125 L 28.070312 165.796875 L 20.417969 159.257812 L 14.019531 151.425781 L 9.082031 142.5625 L 5.777344 132.953125 L 4.210938 122.929688 L 4.433594 112.824219 L 6.421875 102.972656 L 10.101562 93.707031 L 15.332031 85.339844 L 21.917969 78.140625 L 29.617188 72.347656 L 38.148438 68.148438 L 47.199219 65.664062 L 56.445312 64.96875 L 65.546875 66.0625 L 74.171875 68.886719 L 82.011719 73.316406 L 88.78125 79.175781 L 94.230469 86.230469 L 98.160156 94.210938 L 100.429688 102.8125 L 100.949219 111.703125 L 99.695312 120.546875 L 96.710938 129.007812 L 92.097656 136.761719 L 86.011719 143.511719 L 78.671875 148.996094 L 70.332031 152.992188 L 61.285156 155.34375 L 51.851562 155.9375 L 42.363281 154.734375 L 33.160156 151.753906 L 24.5625 147.078125 L 16.875 140.851562 L 10.371094 133.273438 L 5.277344 124.589844 L 1.78125 115.089844 L 0 105.085938 L 0 94.914062 L 1.78125 84.910156 L 5.277344 75.410156 L 10.371094 66.726562 L 16.875 59.148438 L 24.5625 52.921875 L 33.160156 48.246094 L 42.363281 45.265625 L 51.851562 44.0625 L 61.285156 44.65625 L 70.332031 47.007812 L 78.671875 51.003906 L 86.011719 56.488281 L 92.097656 63.238281 L 96.710938 70.992188 L 99.695312 79.453125 L 100.949219 88.296875 L 100.429688 97.1875 L 98.160156 105.789062 L 94.230469 113.769531 L 88.78125 120.824219 L 82.011719 126.683594 L 74.171875 131.113281 L 65.546875 133.9375 L 56.445312 135.03125 L 47.199219 134.335938 L 38.148438 131.851562 L 29.617188 127.652344 L 21.917969 121.859375 L 15.332031 114.660156 L 10.101562 106.292969 L 6.421875 97.027344 L 4.433594 87.175781 L 4.210938 77.070312 L 5.777344 67.046875 L 9.082031 57.4375 L 14.019531 48.574219 L 20.417969 40.742188 L 28.070312 34.203125 L 36.703125 29.171875 L 46.03125 25.804688 L 55.722656 24.203125 L 65.453125 24.402344 L 74.882812 26.378906 L 83.6875 30.039062 L 91.566406 35.238281 L 98.253906 41.769531 L 103.523438 49.382812 L 107.195312 57.789062 L 109.15625 66.667969 L 109.351562 75.6875 L 107.78125 84.507812 L 104.515625 92.800781 L 99.691406 100.25 L 93.484375 106.570312 L 86.136719 111.523438 L 77.921875 114.917969 L 69.144531 116.609375 L 60.132812 116.523438 L 51.21875 114.648438 L 42.742188 111.035156 L 35.015625 105.792969 L 28.328125 99.089844 L 22.933594 91.152344 L 19.042969 82.246094 L 16.808594 72.671875 L 16.324219 62.753906 L 17.625 52.832031 L 20.683594 43.242188 L 25.40625 34.308594 L 31.640625 26.339844 L 39.183594 19.601562 L 47.785156 14.320312 L 57.15625 10.671875 L 66.980469 8.765625 L 76.929688 8.664062 L 86.660156 10.351562 L 95.855469 13.757812 L 104.195312 18.75 L 111.410156 25.136719 L 117.257812 32.675781 L 121.550781 41.09375 L 124.15625 50.070312 L 125 59.285156 L 124.070312 68.390625 L 121.417969 77.054688 L 117.160156 84.960938 L 111.46875 91.8125 L 104.5625 97.359375 L 96.707031 101.394531 L 88.207031 103.761719 L 79.378906 104.367188 L 70.5625 103.183594 L 62.085938 100.242188 L 54.277344 95.636719 L 47.429688 89.523438 L 41.8125 82.113281 L 37.640625 73.664062 L 35.089844 64.460938 L 34.265625 54.832031 L 35.222656 45.105469 L 37.945312 35.625 L 42.359375 26.722656 L 48.332031 18.703125 L 55.667969 11.847656 L 64.128906 6.394531 L 73.4375 2.535156 L 83.285156 0.398438 L 93.339844 0.0546875 L 103.265625 1.511719 L 112.734375 4.714844 L 121.429688 9.546875 L 129.0625 15.828125 L 135.390625 23.335938 L 140.203125 31.796875 L 143.351562 40.910156 L 144.75 50.34375 L 144.367188 59.761719 L 142.242188 68.832031 L 138.472656 77.222656 L 133.214844 84.636719 L 126.671875 90.8125 L 119.109375 95.523438 L 110.808594 98.605469 L 102.09375 99.945312 L 93.292969 99.496094 L 84.746094 97.273438 L 76.773438 93.363281 L 69.6875 87.894531 L 63.757812 81.070312 L 59.21875 73.128906 L 56.257812 64.363281 L 54.996094 55.074219 L 55.503906 45.605469 L 57.785156 36.292969 L 61.78125 27.464844 L 67.371094 19.445312 L 74.378906 12.519531 L 82.578125 6.9375 L 91.699219 2.902344 L 101.4375 0.558594 L 111.46875 0 L 121.460938 1.246094 L 131.078125 4.257812 L 140 8.933594 L 147.933594 15.113281 L 154.613281 22.582031 L 159.828125 31.082031 L 163.410156 40.316406 L 165.257812 49.960938 L 165.320312 59.679688 L 163.621094 69.136719 L 160.242188 78 L 155.324219 85.96875 L 149.058594 92.757812 L 141.695312 98.136719 L 133.515625 101.925781 L 124.828125 104 L 115.960938 104.289062 L 107.257812 102.792969 L 99.039062 99.578125 L 91.625 94.761719 L 85.296875 88.535156 L 80.296875 81.121094 L 76.824219 72.796875 L 75.023438 63.871094 L 74.976562 54.667969 L 76.703125 45.53125 L 80.167969 36.792969 L 85.257812 28.777344 L 91.816406 21.78125 L 99.625 16.066406 L 108.429688 11.847656 L 117.933594 9.285156 L 127.816406 8.488281 L 137.742188 9.496094 L 147.382812 12.285156 L 156.40625 16.769531 L 164.511719 22.804688 L 171.429688 30.1875 L 176.933594 38.675781 L 180.835938 47.972656 L 183.023438 57.773438 L 183.433594 67.734375 L 182.066406 77.523438 L 178.984375 86.800781 L 174.320312 95.261719 L 168.25 102.609375 L 161.007812 108.605469 L 152.867188 113.054688 L 144.132812 115.808594 L 135.128906 116.792969 L 126.195312 115.980469 L 117.65625 113.425781 L 109.839844 109.230469 L 103.027344 103.566406 L 97.488281 96.648438 L 93.421875 88.742188 L 90.992188 80.144531 L 90.300781 71.179688 L 91.378906 62.1875 L 94.210938 53.503906 L 98.699219 45.457031 L 104.699219 38.351562 L 112.015625 32.457031 L 120.394531 28.007812 L 129.550781 25.171875 L 139.171875 24.078125 L 148.925781 24.78125 L 158.476562 27.273438 L 167.496094 31.488281 L 175.671875 37.296875 L 182.726562 44.511719 L 188.421875 52.894531 L 192.558594 62.167969 L 195.003906 72.027344 L 195.675781 82.132812 L 194.566406 92.15625 L 191.71875 101.753906 L 187.242188 110.605469 L 181.308594 118.421875 L 174.132812 124.945312 L 165.980469 129.960938 L 157.148438 133.316406 L 147.957031 134.90625 L 138.742188 134.703125 L 129.835938 132.734375 L 121.566406 129.089844 L 114.230469 123.917969 L 108.09375 117.429688 L 103.378906 109.875 L 100.265625 101.546875 L 98.867188 92.757812 L 99.234375 83.847656 L 101.359375 75.152344 L 105.175781 67.007812 L 110.550781 59.71875 L 117.292969 53.574219 L 125.167969 48.808594 L 133.898438 45.617188 L 143.179688 44.136719 L 152.683594 44.4375 L 162.070312 46.539062 L 171.011719 50.382812 L 179.191406 55.851562 L 186.316406 62.785156 L 192.140625 70.945312 L 196.457031 80.078125 L 199.105469 89.871094 L 200 100 "/>
</g>
</svg>
